<?xml version="1.0" standalone="no"?>
<!DOCTYPE svg PUBLIC "-//W3C//DTD SVG 1.1//EN" "http://www.w3.org/Graphics/SVG/1.1/DTD/svg11.dtd" >
<!--
2013-9-30: Created.
-->
<svg>
<metadata>
Created by iconfont
</metadata>
<defs>

<font id="iconfont" horiz-adv-x="1024" >
  <font-face
    font-family="iconfont"
    font-weight="500"
    font-stretch="normal"
    units-per-em="1024"
    ascent="896"
    descent="-128"
  />
    <missing-glyph />
    
    <glyph glyph-name="anquanshezhi" unicode="&#58970;" d="M913.504492 740.164923 869.783631 740.850215C868.753723 740.850215 810.842585 742.839138 709.653662 781.749169 605.863385 821.714708 538.921354 867.593846 538.285292 868.060554L511.830646 886.153846 485.616246 868.060554C484.982154 867.593846 418.044062 821.714708 314.253785 781.749169 213.039262 742.839138 155.147815 740.850215 154.216369 740.850215L110.276923 740.164923 110.276923 318.143015C110.276923 106.297108 470.147938-117.364185 511.950769-117.76 552.778831-118.153846 913.723077 106.297108 913.723077 318.115446L913.504492 740.164923 913.504492 740.164923 913.504492 740.164923 913.504492 740.164923ZM464.482462 198.171569 276.862031 349.648738 334.554585 413.987446 454.919877 316.892554 683.3152 566.275938 750.792862 510.836185 464.482462 198.171569 464.482462 198.171569 464.482462 198.171569 464.482462 198.171569Z"  horiz-adv-x="1024" />

    
    <glyph glyph-name="xuanzekuang" unicode="&#59003;" d="M907.50001 879.530937 102.661662 879.530937c-55.562038 0-100.604163-45.042125-100.604163-100.604163l0-804.839356c0-55.563046 45.043134-100.604163 100.604163-100.604163L907.50001-126.516746c55.563046 0 100.603155 45.042125 100.603155 100.604163L1008.103165 778.926774C1008.103165 834.488812 963.062048 879.530937 907.50001 879.530937zM968.486866 5.781263c0-51.186892-41.49381-92.679694-92.680702-92.679694L134.355507-86.89843c-51.185883 0-92.680702 41.492802-92.680702 92.679694L41.674806 747.233937c0 51.185883 41.494819 92.680702 92.680702 92.680702l741.450657 0c51.186892 0 92.680702-41.494819 92.680702-92.680702L968.486866 5.781263z"  horiz-adv-x="1024" />

    
    <glyph glyph-name="1" unicode="&#58937;" d="M512 896C228.894118 896 0 667.105882 0 384c0-283.105882 228.894118-512 512-512 283.105882 0 512 228.894118 512 512C1024 667.105882 795.105882 896 512 896zM512-67.764706C262.023529-67.764706 60.235294 134.023529 60.235294 384 60.235294 633.976471 262.023529 835.764706 512 835.764706c249.976471 0 451.764706-201.788235 451.764706-451.764706C963.764706 134.023529 761.976471-67.764706 512-67.764706zM439.717647 624.941176c-30.117647-18.070588-57.223529-30.117647-84.329412-36.141176l0-69.270588c57.223529 18.070588 102.4 45.176471 141.552941 81.317647L496.941176 82.823529l69.270588 0L566.211765 685.176471 512 685.176471C490.917647 661.082353 466.823529 643.011765 439.717647 624.941176z"  horiz-adv-x="1024" />

    
    <glyph glyph-name="iconfontzhizuobiaozhun023101" unicode="&#58983;" d="M22.311657 475.475388c-10.023284-8.991792-17.588587-22.285562-17.588587-37.752836 0-27.185152 22.001083-49.212842 49.155537-49.212842l98.397031 0 0-467.197608c0-27.213805 22.00006-49.15656 49.155537-49.15656l163.104775 0c27.127847 0 49.15349 21.971407 49.15349 49.15656l0 196.72857 196.708104 0 0-196.72857c0-27.185152 21.912056-49.15656 49.127907-49.15656l163.073052 0c27.158547 0 49.157583 21.942755 49.157583 49.15656l0 467.197608 98.367355 0c27.211758 0 49.154513 22.026666 49.154513 49.212842 0 15.46625-7.504928 28.760021-18.822694 37.752836-168.776961 142.224212-488.427118 420.36907-488.427118 420.36907S192.293049 617.6996 22.311657 475.475388zM432.279842 831.850981"  horiz-adv-x="1024" />

    
    <glyph glyph-name="return" unicode="&#58998;" d="M627.083 607.99h-174.332v144.331l-382.468-194.903 382.468-194.928v143.996h188.765c149.44 0 224.111-63.785 224.111-191.353 0-131.983-77.166-197.949-231.592-197.949h-440.163v-101.507h444.672c210.44 0 315.71 96.612 315.71 289.815 0 201.664-109.059 302.498-327.171 302.498z"  horiz-adv-x="1024" />

    
    <glyph glyph-name="bianji" unicode="&#58930;" d="M125.961-2.039l197.99 62.226 458.205 458.205-135.764 135.764-458.205-458.205zM748.215 755.98l-56.568-56.569 135.765-135.764 56.568 56.568c18.745 18.745 18.745 49.137 0 67.882l-67.882 67.882c-18.745 18.746-49.137 18.746-67.883 0.001z"  horiz-adv-x="1024" />

    
    <glyph glyph-name="jinggao" unicode="&#58942;" d="M512 834c-248.527 0-450-201.473-450-450s201.473-450 450-450 450 201.473 450 450-201.473 450-450 450zM512-0.665c-212.416 0-384.665 172.218-384.665 384.665s172.248 384.665 384.665 384.665 384.665-172.218 384.665-384.665-172.248-384.674-384.665-384.674zM512 585.856c-17.882-0.051-32.365-14.533-32.416-32.411v-265.072c0-17.903 14.513-32.416 32.416-32.416s32.416 14.513 32.416 32.416v265.067c-0.051 17.882-14.534 32.364-32.411 32.416zM512 225.161c-17.882-0.051-32.365-14.533-32.416-32.411v-30.78c0-17.903 14.513-32.416 32.416-32.416s32.416 14.513 32.416 32.416v30.786c-0.057 17.878-14.537 32.355-32.411 32.407z"  horiz-adv-x="1024" />

    
    <glyph glyph-name="qiyerenzheng" unicode="&#58913;" d="M436.04992 347.2896v-90.99264h129.04448c51.69152 75.3152 138.48576 124.76416 236.71808 124.76416 2.3552 0 4.80256 0 7.15776-0.1024l-0.19456 367.77984s-97.86368 3.8912-207.86176 47.17568C492.032 838.78912 420.18816 887.6032 411.2896 893.8496L408.20736 896l-2.97984-2.05824c-3.15392-2.2528-76.62592-53.41184-189.72672-97.92512C105.5744 752.72192 7.54688 748.73856 7.54688 748.73856v-440.73984c0-91.67872 23.02976-186.25536 124.03712-279.79776 89.23136-82.66752 233.4208-149.80096 276.71552-149.80096 21.08416 0 84.74624 24.3712 151.45984 61.68576a285.5936 285.5936 0 0 0-44.83072 154.14272c0 35.61472 6.5536 69.79584 18.42176 101.21216H187.96544v60.85632h72.87808V416.26624h60.88704v-159.96928h53.32992V513.88416h60.88704v-107.96032h128.94208v-58.63424H436.04992zM458.0352 572.3136h-100.48512L208.03584 435.80416l-41.35936 45.53728L332.8 633.81504h146.64704L650.0352 480.1024l-41.84064-45.02528L458.0352 572.3136z m343.77728-256.03072c-122.70592 0-222.18752-99.4816-222.18752-222.16704s99.584-222.02368 222.18752-222.02368S1024-28.45696 1024 94.22848s-99.49184 222.0544-222.18752 222.0544z m116.44928-190.72L798.22848 5.29408c-5.7344-5.72416-13.19936-8.4992-20.87936-8.4992h-1.2288a29.61408 29.61408 0 0 0-20.8896 8.4992l-1.01376 1.03424-68.87424 67.0208c-11.76576 11.79648-11.34592 31.65184 1.03424 44.00128 12.36992 12.3904 32.22528 12.9024 44.00128 1.03424l46.34624-44.51328 96.512 96.7168c11.76576 11.74528 31.6416 11.35616 44.01152-1.03424 12.3904-12.3904 12.88192-32.12288 1.01376-43.99104z"  horiz-adv-x="1024" />

    
    <glyph glyph-name="weibiaoti-" unicode="&#58899;" d="M978.488889 514.844444V671.288889c0 42.666667-34.133333 79.644444-79.644445 79.644444H136.533333C91.022222 750.933333 56.888889 716.8 56.888889 671.288889v-159.288889c73.955556 0 130.844444-59.733333 130.844444-130.844444 0-73.955556-59.733333-130.844444-130.844444-130.844445v-159.288889C56.888889 48.355556 91.022222 14.222222 136.533333 14.222222h762.311111c42.666667 0 79.644444 34.133333 79.644445 79.644445v159.288889c-73.955556 0-130.844444 59.733333-130.844445 130.844444 0 71.111111 56.888889 130.844444 130.844445 130.844444z m-685.511111 56.888889l56.888889-110.933333 56.888889 110.933333h51.2l-71.111112-128h48.355556v-25.6h-59.733333v-31.288889h62.577777v-25.6h-62.577777v-54.044444h-45.511111v54.044444H264.533333v25.6h59.733334v31.288889H264.533333v25.6H312.888889l-71.111111 128h51.2zM728.177778 184.888889H281.6c-22.755556 0-39.822222 17.066667-39.822222 39.822222s17.066667 39.822222 39.822222 39.822222h446.577778c22.755556 0 39.822222-17.066667 39.822222-39.822222s-17.066667-39.822222-39.822222-39.822222z m0 159.288889H568.888889c-22.755556 0-39.822222 17.066667-39.822222 39.822222s17.066667 39.822222 39.822222 39.822222h159.288889c22.755556 0 39.822222-17.066667 39.822222-39.822222s-17.066667-39.822222-39.822222-39.822222z m0 156.444444H568.888889c-22.755556 0-39.822222 17.066667-39.822222 39.822222s17.066667 39.822222 39.822222 39.822223h159.288889c22.755556 0 39.822222-17.066667 39.822222-39.822223s-17.066667-39.822222-39.822222-39.822222z"  horiz-adv-x="1024" />

    
    <glyph glyph-name="arrow-copy" unicode="&#58880;" d="M511.8669999999999 496.981l292.1599999999999-292.1550000000001c12.269999999999994-12.280000000000005 32.18599999999999-12.280000000000008 44.457-1.4210854715202004e-14 12.281000000000002 12.269999999999994 12.281000000000006 32.18599999999999 1.4210854715202004e-14 44.457l-314.38799999999986 314.38800000000003c-12.269999999999994 12.280000000000005-32.18599999999999 12.280000000000008-44.457 1.4210854715202004e-14l-314.38700000000006-314.38799999999986c-6.140000000000002-6.1359999999999975-9.211000000000002-14.182999999999995-9.21100000000001-22.228s3.070999999999996-16.092 9.210999999999991-22.228c12.269999999999994-12.280000000000005 32.18599999999999-12.280000000000008 44.457-1.4210854715202004e-14l292.15900000000005 292.15499999999986z"  horiz-adv-x="1024" />

    
    <glyph glyph-name="user" unicode="&#58884;" d="M507.7504 892.5184c18.44736-0.00512 36.82304-2.2272 54.74304-6.6048a269.79328 269.79328 0 0 0 51.22048-17.75104 231.84384 231.84384 0 0 0 42.61888-25.37472 154.0096 154.0096 0 0 0 28.93824-28.42624 223.90784 223.90784 0 0 0 36.36224-71.51616 523.5712 523.5712 0 0 0 16.03584-74.56768 635.32544 635.32544 0 0 0 5.07904-82.11456 38.7072 38.7072 0 0 0 10.56256-13.17376 77.66016 77.66016 0 0 0 5.8624-18.26304c1.68448-9.03168 1.95072-18.26304 0.78336-27.37664a111.90272 111.90272 0 0 0-8.21248-33.97632 70.68672 70.68672 0 0 0-14.07488-19.7888 46.03392 46.03392 0 0 0-17.98656-11.14624 1026.44736 1026.44736 0 0 0-9.37984-32.45568c-3.52256-8.79616-7.04512-17.39776-10.95168-25.8816a70.4256 70.4256 0 0 0-14.08-19.7888 970.0352 970.0352 0 0 1-29.71136-25.88672 63.01696 63.01696 0 0 1-15.25248-36.01408 136.06912 136.06912 0 0 1-1.95584-30.9248c0.91136-10.8288 3.6864-21.40672 8.21248-31.2832a98.24768 98.24768 0 0 1 21.89824-29.91104 138.00448 138.00448 0 0 1 41.84064-25.37984 437.12512 437.12512 0 0 1 52.00384-18.26304 564.13696 564.13696 0 0 0 54.74304-18.76992 194.80064 194.80064 0 0 0 47.31392-26.3936 85.5552 85.5552 0 0 0 29.32736-43.01312 227.2768 227.2768 0 0 0 7.04-40.07936 492.9024 492.9024 0 0 0 2.34496-48.20992 280.6784 280.6784 0 0 0-3.51744-45.6704 90.63424 90.63424 0 0 0-9.77408-32.45568 56.07936 56.07936 0 0 0-27.37664-14.19776 529.83808 529.83808 0 0 0-55.13216-13.68576c-22.28736-4.38272-46.53056-8.28928-73.90208-11.72992a2105.78944 2105.78944 0 0 0-81.3312-8.64256 2471.8848 2471.8848 0 0 0-78.98624-5.59616c-25.02656-1.36704-46.91968-2.03264-65.30048-2.03264s-39.8848 0.6656-64.51712 2.03264c-24.63744 1.37216-49.664 3.21024-75.85792 5.59616a2881.6896 2881.6896 0 0 0-77.81376 8.13568c-25.80992 3.05152-49.26976 6.25664-70.37952 9.61536-21.11488 3.36384-38.71232 6.76352-53.57056 10.1632A70.56384 70.56384 0 0 0 138.24-78.12095999999997a89.30304 89.30304 0 0 0-14.85824 49.69984 402.64704 402.64704 0 0 0 4.3008 107.5712 85.4784 85.4784 0 0 0 28.15488 57.32352 183.36256 183.36256 0 0 0 54.35392 31.27808 706.6624 706.6624 0 0 0 64.51712 20.80256 199.86432 199.86432 0 0 1 59.04384 26.3936 139.49952 139.49952 0 0 1 30.49984 25.37984 83.16416 83.16416 0 0 1 15.24736 24.36096 62.94016 62.94016 0 0 1 5.08416 25.37984c0 8.78592-0.39424 18.60096-1.1776 29.44512a56.86272 56.86272 0 0 1-15.25248 37.03296 526.3616 526.3616 0 0 1-29.71136 27.91936 62.54592 62.54592 0 0 0-13.29664 19.7888 1870.37184 1870.37184 0 0 0-10.55744 25.8816 999.89504 999.89504 0 0 0-9.37984 32.45568 42.4704 42.4704 0 0 0-13.29152 7.1168 79.34464 79.34464 0 0 0-12.51328 14.19264 84.8896 84.8896 0 0 0-11.3408 26.3936 71.15776 71.15776 0 0 0-4.3008 31.27808c0.66048 8.30464 2.37056 16.49152 5.08416 24.36608a67.41504 67.41504 0 0 0 12.51328 21.30944 509.34784 509.34784 0 0 0 3.90656 77.1072 474.47552 474.47552 0 0 0 13.69088 69.99552 218.40896 218.40896 0 0 0 30.1056 66.97984 187.74016 187.74016 0 0 0 40.66816 46.1824 202.9568 202.9568 0 0 0 45.7472 27.91936 190.01856 190.01856 0 0 0 46.91968 13.68576 301.07136 301.07136 0 0 0 45.3632 3.5584V892.5184z m0 0"  horiz-adv-x="1024" />

    
    <glyph glyph-name="kaiguanguan" unicode="&#58935;" d="M0 383.933463a511.933463 511.933463 0 0 1 511.933463-511.933463h672.28694a511.933463 511.933463 0 0 1 0 1023.733853H511.933463A511.933463 511.933463 0 0 1 0 383.933463z m46.708772 1.064588a464.559324 464.559324 0 1 0 464.559324-464.293178A464.559324 464.559324 0 0 0 46.708772 385.264198z"  horiz-adv-x="1696" />

    
    <glyph glyph-name="arrowdown" unicode="&#58900;" d="M512.133 271.01800000000003l-292.16 292.15500001c-12.27 12.28-32.186 12.28-44.45700001-1e-8-12.28099999-12.27-12.281-32.186 0-44.457l314.38800001-314.388c12.27-12.28 32.186-12.28 44.45699999 0l314.38700002 314.388c6.14 6.136 9.211 14.183 9.21099999 22.228s-3.071 16.092-9.211 22.228c-12.27 12.28-32.186 12.28-44.457 0l-292.159-292.15499999z"  horiz-adv-x="1024" />

    
    <glyph glyph-name="quanxianguanli" unicode="&#59128;" d="M651.776 500.736h91.648V693.76c0 113.152-91.648 202.24-202.24 202.24H480.768C367.616 896 278.528 804.352 278.528 693.76v-81.92h86.528V691.2s7.168 108.544 108.544 108.544h74.752s103.424 4.608 103.424-101.376c2.56-113.152 0-197.632 0-197.632zM188.928 440.832v-291.328c0-151.552 122.88-276.992 276.992-276.992h91.648c151.552 0 276.992 122.88 276.992 276.992V440.832H188.928z m361.472-241.152v-89.088c0-19.456-14.336-33.792-33.792-33.792H506.88c-19.456 0-33.792 14.336-33.792 33.792V199.68c-21.504 14.336-38.4 38.4-38.4 65.024 0 43.52 33.792 77.312 77.312 77.312s77.312-33.792 77.312-77.312c0-28.672-16.896-52.736-38.912-65.024z"  horiz-adv-x="1024" />

    
    <glyph glyph-name="gongdanxinxi" unicode="&#58890;" d="M287.5 331c-21.25 0-38.75-17.5-38.75-38.75s17.5-38.75 38.75-38.75 38.75 17.5 38.75 38.75S308.75 331 287.5 331z m0-162.5c-21.25 0-38.75-17.5-38.75-38.75S266.25 91 287.5 91s38.75 17.5 38.75 38.75-17.5 38.75-38.75 38.75z m0 323.75c-21.25 0-38.75-17.5-38.75-38.75s17.5-38.75 38.75-38.75 38.75 17.5 38.75 38.75c0 22.5-17.5 38.75-38.75 38.75zM910 734.75H805V756c0 12.5-10 22.5-22.5 22.5H658.75c-6.25 27.5-20 51.25-40 71.25-27.5 27.5-65 45-107.5 45-41.25 0-78.75-17.5-106.25-45-18.75-18.75-33.75-42.5-40-71.25H242.5c-12.5 0-23.75-10-23.75-22.5v-21.25H115c-21.25 0-38.75-17.5-38.75-38.75v-785c0-21.25 17.5-38.75 38.75-38.75h795c21.25 0 37.5 17.5 37.5 38.75V696c0 22.5-16.25 38.75-37.5 38.75zM450 806c18.75 18.75 33.75 31.25 62.5 31.25S556.25 826 575 806c10-10 7.5-12.5 12.5-27.5H436.25c6.25 15 2.5 16.25 13.75 27.5m-172.5-85h470v-50h-470m593.75-720H152.5V658.5h66.25v-21.25c0-12.5 10-22.5 23.75-22.5h540c12.5 0 22.5 10 22.5 22.5V658.5h67.5V-49h-1.25zM735 489.75H402.5c-12.5 0-22.5-22.5-22.5-35s10-35 22.5-35H735c12.5 0 23.75 22.5 23.75 35-1.25 12.5-11.25 35-23.75 35z m0-325H402.5c-12.5 0-22.5-22.5-22.5-35S390 96 402.5 96H735c12.5 0 23.75 21.25 23.75 33.75-1.25 13.75-11.25 35-23.75 35z m0 162.5H402.5c-12.5 0-22.5-21.25-22.5-35 0-12.5 10-35 22.5-35H735c12.5 0 23.75 21.25 23.75 35-1.25 12.5-11.25 35-23.75 35z"  horiz-adv-x="1024" />

    
    <glyph glyph-name="xuanzekuang1" unicode="&#58971;" d="M797.160708 591.439363l-344.211902-364.645682L244.71885 432.834303c-9.000594 9.000594-22.623114 9.000594-31.745338 0-9.000594-9.000594-9.000594-22.623114 0-31.745338L437.136952 176.925526c9.000594-9.000594 22.623114-9.000594 31.745338 0l360.023756 382.64687c9.000594 9.000594 9.000594 22.623114 0 31.745338s-22.623114 9.122224-31.745338 0.121629zM905.897613 885.78311h-815.283526c-49.868155 0-90.614087-40.745932-90.614087-90.614088v-815.283525c0-49.868155 40.745932-90.614087 90.614087-90.614087h815.283526c49.868155 0 90.614087 40.745932 90.614087 90.614087V795.169022c0 49.868155-40.745932 90.614087-90.614087 90.614088z m45.246228-905.775983c0-24.934078-20.433781-45.246229-45.246228-45.246229h-815.283526c-24.934078 0-45.246229 20.433781-45.246229 45.246229V795.169022c0 24.934078 20.433781 45.246229 45.246229 45.246229h815.283526c24.934078 0 45.246229-20.433781 45.246228-45.246229v-815.161895z"  horiz-adv-x="1041" />

    
    <glyph glyph-name="gerenziliao" unicode="&#58932;" d="M795.2 179.2c-54.4 88-134.4 152-227.2 184 68.8 46.4 113.6 124.8 113.6 212.8 0 140.8-115.2 256-256 256s-256-115.2-256-256c0-89.6 46.4-168 115.2-212.8-91.2-32-171.2-96-224-182.4-25.6-52.8-32-110.4 0-160C94.4-32 144-64 201.6-64h451.2c57.6 0 107.2 32 140.8 83.2 33.6 49.6 25.6 107.2 1.6 160zM952 337.6H710.4c-17.6 0-32 14.4-32 32s14.4 32 32 32h241.6c17.6 0 32-14.4 32-32s-14.4-32-32-32zM952 473.6h-192c-17.6 0-32 14.4-32 32s14.4 32 32 32h192c17.6 0 32-14.4 32-32s-14.4-32-32-32zM952 608h-160c-17.6 0-32 14.4-32 32s14.4 32 32 32h160c17.6 0 32-14.4 32-32s-14.4-32-32-32z"  horiz-adv-x="1024" />

    
    <glyph glyph-name="tishi1" unicode="&#58889;" d="M923.7 558.3c-22.5 53.3-54.8 101.2-95.9 142.3-41.1 41.1-89 73.4-142.3 95.9-55.2 23.3-113.8 35.2-174.2 35.2-60.4 0-119-11.8-174.2-35.2-53.3-22.5-101.2-54.8-142.3-95.9-41.1-41.1-73.4-89-95.9-142.3-23.3-55.2-35.2-113.8-35.2-174.2 0-60.4 11.8-119 35.2-174.2 22.5-53.3 54.8-101.2 95.9-142.3 41.1-41.1 89-73.4 142.3-95.9 55.2-23.3 113.8-35.2 174.2-35.2 60.4 0 119 11.8 174.2 35.2 53.3 22.5 101.2 54.8 142.3 95.9 41.1 41.1 73.4 89 95.9 142.3 23.3 55.2 35.2 113.8 35.2 174.2-0.1 60.4-11.9 119-35.2 174.2z m-57.4-324.2c-19.4-45.9-47.2-87.1-82.6-122.5-35.1-35.2-76.7-63.2-122.5-82.6-47.5-20.1-98-30.3-150-30.3s-102.5 10.2-150 30.3c-45.9 19.4-87.1 47.2-122.5 82.6-35.2 35.1-63.2 76.7-82.6 122.5-20.1 47.5-30.3 97.9-30.3 150s10.2 102.5 30.3 150c19.3 45.8 47.4 87.4 82.6 122.5 35.1 35.2 76.7 63.2 122.5 82.6 47.5 20.1 97.9 30.3 150 30.3 52 0 102.5-10.2 150-30.3 45.9-19.4 87.1-47.2 122.5-82.6 35.2-35.1 63.2-76.7 82.6-122.5 20.1-47.5 30.3-97.9 30.3-150s-10.2-102.5-30.3-150z m0 0M549.2 315.3c-2.6-28.1-20.4-41.2-38.1-41.2-13.1 0 0 0 0 0-16.7 3.2-29.7 10.3-35.5 38.7l-23 265.5c0 26.7 32.4 50.3 60 50.3 27.5 0 57.2-24.7 57.2-51.3l-20.6-262z m-37.9-76c-27.5 0-49.9-22.3-49.9-49.9 0-27.6 22.3-49.9 49.9-49.9 27.6 0 49.9 22.3 49.9 49.9-0.1 27.6-22.4 49.9-49.9 49.9z m0 0"  horiz-adv-x="1024" />

    
    <glyph glyph-name="yingyong" unicode="&#58882;" d="M854 658.1l-273.9 156C538 838 486.5 838 444.4 814.1L170.6 657.8c-40.9-23.5-66.9-66.2-68.9-113.2v-320.8c2-47 27.8-89.8 68.9-113.2l273.8-156.5c42.1-23.9 93.6-23.9 135.7 0L854 110.6c42.5 24.4 68.9 69.5 68.9 119.1V539.1c0 49.3-26.2 94.5-68.9 119zM733.9 455.6l-183.6-106v-205.8c0-20.3-16.6-37.2-37.2-37.2l-0.2 4.9v-4.9h-0.4c-9.8 0-19 3.8-25.8 10.7-6.9 6.9-10.9 16.6-10.7 26.7V348.8L290.5 455.7c-13 7.7-20.1 22.2-18.2 37 2 15 12.8 27.1 27.1 30.9 9.6 2.5 19.9 1.1 28.2-4l185.2-106 183.8 106c8.1 4.9 18.6 6.5 28 4 9.6-2.5 17.7-9 22.6-17.5 10.2-17.6 4.2-40.1-13.3-50.5z"  horiz-adv-x="1024" />

    
    <glyph glyph-name="shangjiaICON--_shenheshibai" unicode="&#58924;" d="M512 896a512 512 0 1 1 512-512A512 512 0 0 1 512 896z m0-970.105263a458.105263 458.105263 0 1 0 458.105263 458.105263 458.105263 458.105263 0 0 0-458.105263-458.105263zM702.517895 574.517895a48.505263 48.505263 0 0 1-68.71579 0L512 452.715789l-122.071579 122.071579a48.505263 48.505263 0 0 1-68.715789-68.715789L443.284211 384l-122.071579-122.071579a48.505263 48.505263 0 0 1 68.715789-68.715789L512 315.284211l122.071579-122.071579a48.505263 48.505263 0 1 1 68.715789 68.715789L580.715789 384l122.071579 122.071579a48.505263 48.505263 0 0 1-0.269473 68.446316z"  horiz-adv-x="1024" />

    
    <glyph glyph-name="icon-test" unicode="&#58886;" d="M512-122.666667C232.170667-122.666667 5.333333 104.170667 5.333333 384S232.170667 890.666667 512 890.666667 1018.666667 663.829333 1018.666667 384 791.829333-122.666667 512-122.666667z m0 53.333334c250.368 0 453.333333 202.965333 453.333333 453.333333S762.368 837.333333 512 837.333333 58.666667 634.368 58.666667 384 261.632-69.333333 512-69.333333zM546.666667 699.733333c52.8 0 96-15.210667 130.389333-45.610666 33.621333-30.4 51.2-71.189333 51.2-120.789334 0-49.6-19.2-94.4-55.978667-134.4-20.010667-20.8-59.221333-52.010667-118.4-92.010666-72.810667-48.789333-114.410667-92.8-124.8-131.2h299.989334V117.333333h-380.8c0 52.010667 18.410667 99.2 56.810666 141.589334 22.4 25.6 63.189333 60.010667 123.989334 101.610666 44.8 32 74.410667 55.210667 89.6 71.210667 28.8 31.189333 44.010667 65.6 44.010666 102.4 0 35.2-10.410667 61.589333-31.210666 80.789333-20.8 19.2-50.410667 28.8-87.210667 28.8-39.189333 0-69.589333-12.8-90.389333-40-22.4-25.6-34.389333-64-35.2-114.410666H353.066667c0 64 18.410667 115.2 53.589333 152.810666 35.2 38.4 82.410667 57.6 140.010667 57.6z"  horiz-adv-x="1024" />

    
    <glyph glyph-name="huaban" unicode="&#58973;" d="M28.16 623.502222m107.52 0l0 0q107.52 0 107.52-107.52l0-508.017778q0-107.52-107.52-107.52l0 0q-107.52 0-107.52 107.52l0 508.017778q0 107.52 107.52 107.52ZM874.951111-99.555556H269.937778a107.52 107.52 0 0 0-107.52 107.52V760.035556A107.52 107.52 0 0 0 269.937778 867.555556h605.013333a107.52 107.52 0 0 0 107.52-107.52v-752.071112A107.52 107.52 0 0 0 874.951111-99.555556zM463.928889 488.675556h142.222222v36.124444h-106.097778v54.328889h106.666667V615.253333h-106.666667V668.444444h106.666667V705.706667h-142.222222z m-213.333333 217.031111v-215.04h54.328888l-1.991111 146.773333 72.248889-146.773333h54.328889V705.706667h-54.328889v-142.222223l-72.248889 142.222223H250.595556z m247.466666-589.084445H248.604444v-54.328889h249.457778z m0 142.222222H248.604444v-54.328888h249.457778z m0 142.222223H248.604444v-54.328889h249.457778z m357.831111 0h-284.444444v-338.773334h284.444444zM896 705.706667h-36.124444L824.888889 544.711111l-37.262222 160.995556h-36.408889l-36.124445-160.711111-36.124444 160.711111H642.844444l32.142223-215.04h54.328889l34.133333 162.986666 38.115555-162.986666h54.328889zM135.395556-19.057778h295.537777V-99.555556H135.395556z"  horiz-adv-x="1024" />

    
    <glyph glyph-name="wancheng" unicode="&#58972;" d="M512-128C229.218462-128 0 101.218462 0 384S229.218462 896 512 896s512-229.218462 512-512-229.218462-512-512-512z m0 78.769231c239.261538 0 433.230769 193.969231 433.230769 433.230769S751.261538 817.230769 512 817.230769 78.769231 623.261538 78.769231 384s193.969231-433.230769 433.230769-433.230769zM501.917538 257.378462l-52.460307-3.268924 24.772923 25.127385 27.687384-21.858461z m257.693539 311.808l56.162461-55.296-334.926769-340.204308-229.533538 180.932923 48.758154 61.873231 174.158769-137.255385 285.380923 289.949539z"  horiz-adv-x="1024" />

    
    <glyph glyph-name="shenhezhong" unicode="&#58922;" d="M949.638832 522.535266a36.913707 36.913707 0 0 1 12.387989 64.567705 36.16292 36.16292 0 0 1-38.165019 3.879067 36.913707 36.913707 0 0 1-12.38799-64.567705c10.948981-8.446357 25.714464-10.010497 38.16502-3.879067z m15.015745-76.017211a36.600879 36.600879 0 0 1-36.413182-36.72601c0-20.271256 16.267057-36.72601 36.475747-36.72601A36.600879 36.600879 0 0 1 1001.130325 409.792045a36.600879 36.600879 0 0 1-36.413183 36.72601z m-10.636153-147.654828a36.538313 36.538313 0 0 1-41.168168-31.282803 36.72601 36.72601 0 1 1 70.386306 8.446357 36.600879 36.600879 0 0 1-28.592482 22.899012h-0.625656z m-101.79424-155.788357a35.662395 35.662395 0 0 1 9.384841-51.303797c11.261809-7.507873 25.589333-8.383791 37.601929-2.314927a37.977322 37.977322 0 0 1 3.879067 65.693886 34.911608 34.911608 0 0 1-50.865837-12.075162z m-96.726426-99.479313a35.537264 35.537264 0 0 1-7.570438-51.929452 36.288051 36.288051 0 0 1 64.192311 6.131429 36.976273 36.976273 0 0 1-5.756036 37.539363 35.16187 35.16187 0 0 1-50.865837 8.25866z m-121.314708-64.63027a35.724961 35.724961 0 0 1-23.274406-46.924204 36.288051 36.288051 0 1 1 61.93995-12.575687 36.976273 36.976273 0 0 1 7.195044 36.037789 34.911608 34.911608 0 0 1-45.860588 23.462102z m-135.704798-20.896912c-194.516467-1.251312-366.133922 128.196925-419.940343 316.707094-53.806421 188.510169 23.336971 390.096549 188.822997 493.329798a431.327283 431.327283 0 0 0 522.04741-49.739657h-44.609276a31.533065 31.533065 0 0 1-31.407934-31.720761c0-17.518369 14.077261-31.658196 31.407934-31.658197H857.229432a31.533065 31.533065 0 0 1 31.407934 31.658197V801.327603a31.533065 31.533065 0 0 1-31.407934 31.658196 31.533065 31.533065 0 0 1-31.407933-31.658196v-31.658196a493.142101 493.142101 0 0 1-594.998907 48.300647C43.876564 698.657445-42.026012 468.853977 19.976502 254.754475c62.127646-214.099501 257.207203-361.003543 478.439184-360.065058a31.533065 31.533065 0 0 1 31.407934 31.658196 31.533065 31.533065 0 0 1-31.407934 31.720762zM764.069246 133.690029a32.096156 32.096156 0 0 1 0 45.547761L519.625426 423.431347v212.723058a32.221287 32.221287 0 0 1-64.505139 0v-228.802418a32.03359 32.03359 0 0 1 9.635104-22.523618l254.141488-253.140439a32.346418 32.346418 0 0 1 45.798023 0l-0.625656 1.939533z"  horiz-adv-x="1024" />

    
    <glyph glyph-name="xitongpeizhicopy" unicode="&#59004;" d="M717.101653 282.666667c-33.749333 0-61.141333-28.416-61.184-63.488 0.042667-35.072 27.434667-63.445333 61.184-63.488 33.749333 0 61.141333 28.416 61.141334 63.488 0 35.029333-27.392 63.445333-61.141334 63.488z m0-188.416c-66.432 0.085333-120.32 55.936-120.362666 124.928 0 68.864 54.016 124.928 120.362666 124.928 66.346667 0 120.362667-56.064 120.362667-124.928 0-68.906667-54.016-124.928-120.362667-124.928z m72.874667-86.357334a3.712 3.712 0 0 1 1.877333-0.512h0.128l58.24 33.408a106.666667 106.666667 0 0 0-7.850666 36.992c0.042667 51.157333 38.570667 93.312 87.765333 96.085334 0.725333 4.010667 4.565333 26.666667 4.565333 43.648 0 17.024-3.84 39.68-4.565333 43.690666-49.152 2.730667-87.722667 44.885333-87.765333 96 0 17.237333 6.442667 33.706667 7.850666 37.077334l-57.301333 33.024h-0.256a4.181333 4.181333 0 0 1-2.176-0.597334c-6.570667-6.784-13.653333-12.928-21.205333-18.432-17.664-12.885333-34.346667-19.456-49.664-19.456-15.402667 0-32.256 6.656-50.005334 19.797334a160.64 160.64 0 0 0-21.333333 18.858666 4.522667 4.522667 0 0 1-2.218667 0.597334h-0.170666l-59.306667-33.877334c1.365333-3.413333 7.765333-19.84 7.765333-36.949333-0.042667-51.157333-38.613333-93.312-87.808-96.042667a302.634667 302.634667 0 0 1-4.48-43.690666c0-16.981333 3.797333-39.68 4.522667-43.690667 49.194667-2.730667 87.722667-44.885333 87.765333-96 0-17.237333-6.485333-33.749333-7.850666-37.077333l56.192-32.597334h0.085333c0.853333 0 1.621333 0.341333 1.92 0.512 6.613333 7.168 13.781333 13.738667 21.504 19.584 18.005333 13.653333 35.114667 20.650667 50.858667 20.650667 15.914667 0 33.194667-7.082667 51.285333-21.077333 12.16-9.386667 20.565333-18.773333 21.632-19.925334z m18.474667-91.648a39.168 39.168 0 0 0-29.141334 12.842667c-9.6 10.922667-39.936 39.253333-64.810666 39.253333-24.661333 0-55.466667-28.544-64.341334-38.485333a38.954667 38.954667 0 0 0-28.928-12.672 35.328 35.328 0 0 0-14.805333 3.157333l-0.810667 0.341334-75.52 43.818666-0.725333 0.597334a38.485333 38.485333 0 0 0-12.16 45.44c0 0.128 6.954667 16.64 6.954667 31.786666-0.085333 45.866667-35.84 83.029333-80.042667 83.072h-3.2c-12.629333 0-22.954667 11.690667-26.197333 29.696-0.298667 1.450667-6.485333 35.669333-6.485334 62.634667s6.186667 61.184 6.442667 62.677333c3.370667 18.218667 13.866667 29.952 26.752 29.653334h2.645333c44.202667 0.042667 80.042667 37.248 80.085334 83.114666 0 15.104-6.912 31.658667-6.997334 31.829334a38.357333 38.357333 0 0 0 12.288 45.354666l0.768 0.554667 79.701334 45.482667 0.853333 0.341333a35.456 35.456 0 0 0 14.592 2.986667 39.68 39.68 0 0 0 29.013333-12.373334c9.386667-10.24 39.253333-36.906667 63.317334-36.906666 23.936 0 53.589333 26.154667 62.976 36.224a39.68 39.68 0 0 0 43.648 9.002666l0.853333-0.341333 76.928-44.373333 0.768-0.597334a38.4 38.4 0 0 0 12.202667-45.44c-0.042667-0.085333-6.954667-16.64-6.954667-31.744 0-45.866667 35.84-83.029333 80.042667-83.114666h2.688c12.8 0.298667 23.381333-11.392 26.709333-29.653334 0.256-1.450667 6.442667-35.712 6.442667-62.634666 0-26.965333-6.186667-61.269333-6.485334-62.72-3.285333-18.176-13.824-29.909333-26.666666-29.610667h-2.688c-44.202667-0.085333-80-37.248-80.042667-83.114667 0-15.104 6.912-31.658667 6.954667-31.829333a38.4 38.4 0 0 0-12.245334-45.397333l-0.725333-0.597334-78.336-44.885333-0.810667-0.341333a35.541333 35.541333 0 0 0-14.506666-3.029334zM1006.765653 562.773333c0-15.957333-8.32-30.72-21.888-38.698666a43.008 43.008 0 0 0-43.776 0 44.885333 44.885333 0 0 0-21.888 38.698666V741.546667a22.186667 22.186667 0 0 1-21.76 22.4H109.357653a22.229333 22.229333 0 0 1-21.845333-22.442667v-536.234667c0-12.373333 9.770667-22.4 21.802667-22.4h197.034666c15.658667 0 30.122667-8.533333 37.930667-22.357333 7.808-13.824 7.808-30.890667 0-44.714667a43.605333 43.605333 0 0 0-37.930667-22.314666H43.949653c-11.648-0.042667-22.784 4.650667-31.018666 13.013333A45.184 45.184 0 0 0 0.002987 138.154667V808.618667C0.002987 833.365333 19.629653 853.333333 43.906987 853.333333h918.954666c11.648 0 22.826667-4.693333 31.061334-13.056 8.234667-8.362667 12.842667-19.754667 12.842666-31.658666V562.773333zM196.95232-40.618667a44.373333 44.373333 0 0 0 43.989333 44.672h174.72c15.616 0 30.08-8.533333 37.888-22.357333 7.850667-13.824 7.850667-30.848 0-44.672a43.605333 43.605333 0 0 0-37.888-22.357333H240.98432a43.306667 43.306667 0 0 0-31.104 13.013333 45.184 45.184 0 0 0-12.885333 31.701333z"  horiz-adv-x="1024" />

    
    <glyph glyph-name="kaiguanguan1" unicode="&#59045;" d="M1656.915027 395.125622c0 275.594378-223.42573 498.992432-498.992432 498.992432H502.341189C226.774486 894.14573 3.376432 670.72 3.376432 395.153297c0-275.594378 223.398054-498.992432 498.992433-498.992432h655.526054c275.594378 0 498.992432 223.398054 498.992432 498.992432z m-45.581838-1.051676c0-250.105081-202.752-452.857081-452.857081-452.857081-250.105081 0-452.884757 202.724324-452.884757 452.857081 0 250.105081 202.779676 452.857081 452.884757 452.857081s452.857081-202.752 452.857081-452.857081z"  horiz-adv-x="1660" />

    


  </font>
</defs>
</svg>
